<svg xmlns="http://www.w3.org/2000/svg" width="1990" height="217">
    <path fill="#C5C0F9" fill-rule="evenodd" d="M1612.676 216.984c-92.643.001-181.055-51.444-257.798-100.824l-3.417-2.199C1263.891 57.602 1173.353-.683 1071.023 1.248c-78.011 1.468-149.16 38.727-217.965 74.759-53.075 27.794-107.956 56.534-166.423 69.455-99.569 22.005-202.285-2.572-301.617-26.339-14.078-3.368-28.635-6.852-42.875-10.124-50.923-11.7-118.122-24.828-186.302-22.46-31.984 1.11-61.704 5.623-88.336 13.415a920.07 920.07 0 0 1-4.891 1.409c-17.799 5.095-50.93 14.579-61.685 27.498l-.93-.769c10.993-13.204 44.357-22.755 62.281-27.886 1.779-.51 3.42-.979 4.885-1.408 26.729-7.82 56.55-12.35 88.633-13.463 68.317-2.379 135.622 10.773 186.617 22.49 14.244 3.273 28.804 6.757 42.885 10.126 99.2 23.736 201.778 48.282 301.073 26.335 58.31-12.886 113.118-41.588 166.122-69.345C921.426 38.843 992.702 1.517 1071 .044c1.654-.031 3.316-.046 4.964-.046 100.654 0 189.844 57.404 276.153 112.951l3.416 2.199c85.072 54.74 184.5 112.021 287.945 98.672 59.932-7.733 113.171-39.202 164.655-69.635 56.457-33.372 114.837-67.88 181.817-70.664l.05 1.204c-66.675 2.77-124.921 37.201-181.25 70.497-51.59 30.494-104.937 62.028-165.116 69.793a241.707 241.707 0 0 1-30.958 1.969z"/>
</svg>
